<svg width="20" height="20" viewBox="0 0 20 20" fill="none" xmlns="http://www.w3.org/2000/svg">
<path d="M5.83268 2.78334C7.41138 1.87194 9.24539 1.50332 11.0536 1.73399C12.8619 1.96465 14.5446 2.78187 15.844 4.06041C17.1433 5.33895 17.9876 7.00827 18.2474 8.81256C18.5072 10.6168 18.1683 12.4566 17.2825 14.0498C16.3967 15.643 15.0129 16.9018 13.3432 17.6333C11.6735 18.3648 9.81 18.5286 8.03828 18.0997C6.26657 17.6707 4.68437 16.6727 3.53416 15.2585C2.38395 13.8443 1.72917 12.092 1.67018 10.27L1.66602 10L1.67018 9.73001C1.71615 8.31373 2.12251 6.93256 2.85086 5.71705C3.57921 4.50153 4.60548 3.49182 5.83268 2.78334Z" fill="#111111"/>
</svg>
