<svg width="24" height="24" viewBox="0 0 24 24" fill="none" xmlns="http://www.w3.org/2000/svg">
<path d="M15 8H15.01M11 21H6C5.20435 21 4.44129 20.6839 3.87868 20.1213C3.31607 19.5587 3 18.7956 3 18V6C3 5.20435 3.31607 4.44129 3.87868 3.87868C4.44129 3.31607 5.20435 3 6 3H18C18.7956 3 19.5587 3.31607 20.1213 3.87868C20.6839 4.44129 21 5.20435 21 6V11.5M3 16.0001L8 11.0001C8.928 10.1071 10.072 10.1071 11 11.0001L13 13.0001M17 11L17.5091 16.4909L23 17L17.5091 17.5091L17 23L16.4909 17.5091L11 17L16.4909 16.4909L17 11Z" stroke="#3B4582" stroke-width="2" stroke-linecap="round" stroke-linejoin="round"/>
</svg>
