<svg width="32" height="32" viewBox="0 0 32 32" fill="none" xmlns="http://www.w3.org/2000/svg">
<path d="M5.33316 14.6667C5.673 14.6671 5.99987 14.7973 6.24698 15.0305C6.4941 15.2638 6.6428 15.5827 6.66272 15.9219C6.68264 16.2612 6.57226 16.5953 6.35414 16.8559C6.13602 17.1165 5.82662 17.2839 5.48916 17.3241L5.33316 17.3334H3.99983C3.65999 17.333 3.33312 17.2029 3.086 16.9696C2.83889 16.7363 2.69018 16.4175 2.67026 16.0782C2.65035 15.739 2.76072 15.4049 2.97884 15.1443C3.19697 14.8837 3.50636 14.7162 3.84382 14.6761L3.99983 14.6667H5.33316Z" fill="#E0E0E0"/>
<path d="M16 2.66675C16.3266 2.66679 16.6418 2.78669 16.8858 3.0037C17.1299 3.22071 17.2858 3.51975 17.324 3.84408L17.3333 4.00008V5.33341C17.333 5.67325 17.2028 6.00012 16.9695 6.24724C16.7362 6.49435 16.4174 6.64306 16.0781 6.66298C15.7389 6.68289 15.4048 6.57252 15.1442 6.35439C14.8836 6.13627 14.7161 5.82688 14.676 5.48941L14.6667 5.33341V4.00008C14.6667 3.64646 14.8071 3.30732 15.0572 3.05727C15.3072 2.80722 15.6464 2.66675 16 2.66675Z" fill="#E0E0E0"/>
<path d="M27.9998 14.6667C28.3397 14.6671 28.6665 14.7973 28.9136 15.0305C29.1608 15.2638 29.3095 15.5827 29.3294 15.9219C29.3493 16.2612 29.2389 16.5953 29.0208 16.8559C28.8027 17.1165 28.4933 17.2839 28.1558 17.3241L27.9998 17.3334H26.6665C26.3267 17.333 25.9998 17.2029 25.7527 16.9696C25.5056 16.7363 25.3568 16.4175 25.3369 16.0782C25.317 15.739 25.4274 15.4049 25.6455 15.1443C25.8636 14.8837 26.173 14.7162 26.5105 14.6761L26.6665 14.6667H27.9998Z" fill="#E0E0E0"/>
<path d="M6.5245 6.52403C6.75409 6.29446 7.05955 6.15655 7.38359 6.13617C7.70762 6.1158 8.02796 6.21436 8.2845 6.41336L8.40983 6.52403L9.34316 7.45736C9.58229 7.6973 9.72113 8.01927 9.73147 8.35787C9.74181 8.69647 9.62288 9.02631 9.39883 9.2804C9.17479 9.53448 8.86243 9.69377 8.5252 9.72589C8.18797 9.75802 7.85115 9.66058 7.58316 9.45336L7.45783 9.34269L6.5245 8.40936C6.27454 8.15932 6.13411 7.82025 6.13411 7.46669C6.13411 7.11314 6.27454 6.77406 6.5245 6.52403Z" fill="#E0E0E0"/>
<path d="M23.5908 6.52377C23.8307 6.28464 24.1527 6.14581 24.4913 6.13547C24.8299 6.12513 25.1597 6.24406 25.4138 6.4681C25.6679 6.69215 25.8272 7.00451 25.8593 7.34174C25.8914 7.67897 25.794 8.01578 25.5868 8.28377L25.4761 8.40911L24.5428 9.34244C24.3028 9.58157 23.9809 9.7204 23.6423 9.73074C23.3037 9.74108 22.9738 9.62215 22.7197 9.39811C22.4656 9.17406 22.3064 8.8617 22.2742 8.52447C22.2421 8.18724 22.3396 7.85043 22.5468 7.58244L22.6574 7.45711L23.5908 6.52377Z" fill="#E0E0E0"/>
<path d="M18.6667 24.0001C19.0203 24.0001 19.3594 24.1406 19.6095 24.3906C19.8595 24.6407 20 24.9798 20 25.3334C20 26.3943 19.5786 27.4117 18.8284 28.1618C18.0783 28.912 17.0609 29.3334 16 29.3334C14.9391 29.3334 13.9217 28.912 13.1716 28.1618C12.4214 27.4117 12 26.3943 12 25.3334C12 25.0068 12.1199 24.6916 12.337 24.4476C12.554 24.2035 12.853 24.0476 13.1773 24.0094L13.3333 24.0001H18.6667Z" fill="#E0E0E0"/>
<path d="M16 8.00008C17.6791 8.00008 19.3156 8.52838 20.6777 9.51014C22.0398 10.4919 23.0585 11.8774 23.5895 13.4703C24.1204 15.0632 24.1368 16.7827 23.6361 18.3854C23.1355 19.9881 22.1432 21.3926 20.8 22.4001C20.6162 22.5381 20.3999 22.6263 20.172 22.6561L20 22.6667H12C11.7115 22.6667 11.4308 22.5732 11.2 22.4001C9.85675 21.3926 8.86453 19.9881 8.36389 18.3854C7.86325 16.7827 7.87957 15.0632 8.41053 13.4703C8.9415 11.8774 9.96019 10.4919 11.3223 9.51014C12.6844 8.52838 14.3209 8.00008 16 8.00008Z" fill="#E0E0E0"/>
<path d="M5.33316 14.6667C5.673 14.6671 5.99987 14.7973 6.24698 15.0305C6.4941 15.2638 6.6428 15.5827 6.66272 15.9219C6.68264 16.2612 6.57226 16.5953 6.35414 16.8559C6.13602 17.1165 5.82662 17.2839 5.48916 17.3241L5.33316 17.3334H3.99983C3.65999 17.333 3.33312 17.2029 3.086 16.9696C2.83889 16.7363 2.69018 16.4175 2.67026 16.0782C2.65035 15.739 2.76072 15.4049 2.97884 15.1443C3.19697 14.8837 3.50636 14.7162 3.84382 14.6761L3.99983 14.6667H5.33316Z" stroke="#E0E0E0"/>
<path d="M16 2.66675C16.3266 2.66679 16.6418 2.78669 16.8858 3.0037C17.1299 3.22071 17.2858 3.51975 17.324 3.84408L17.3333 4.00008V5.33341C17.333 5.67325 17.2028 6.00012 16.9695 6.24724C16.7362 6.49435 16.4174 6.64306 16.0781 6.66298C15.7389 6.68289 15.4048 6.57252 15.1442 6.35439C14.8836 6.13627 14.7161 5.82688 14.676 5.48941L14.6667 5.33341V4.00008C14.6667 3.64646 14.8071 3.30732 15.0572 3.05727C15.3072 2.80722 15.6464 2.66675 16 2.66675Z" stroke="#E0E0E0"/>
<path d="M27.9998 14.6667C28.3397 14.6671 28.6665 14.7973 28.9136 15.0305C29.1608 15.2638 29.3095 15.5827 29.3294 15.9219C29.3493 16.2612 29.2389 16.5953 29.0208 16.8559C28.8027 17.1165 28.4933 17.2839 28.1558 17.3241L27.9998 17.3334H26.6665C26.3267 17.333 25.9998 17.2029 25.7527 16.9696C25.5056 16.7363 25.3568 16.4175 25.3369 16.0782C25.317 15.739 25.4274 15.4049 25.6455 15.1443C25.8636 14.8837 26.173 14.7162 26.5105 14.6761L26.6665 14.6667H27.9998Z" stroke="#E0E0E0"/>
<path d="M6.5245 6.52403C6.75409 6.29446 7.05955 6.15655 7.38359 6.13617C7.70762 6.1158 8.02796 6.21436 8.2845 6.41336L8.40983 6.52403L9.34316 7.45736C9.58229 7.6973 9.72113 8.01927 9.73147 8.35787C9.74181 8.69647 9.62288 9.02631 9.39883 9.2804C9.17479 9.53448 8.86243 9.69377 8.5252 9.72589C8.18797 9.75802 7.85115 9.66058 7.58316 9.45336L7.45783 9.34269L6.5245 8.40936C6.27454 8.15932 6.13411 7.82025 6.13411 7.46669C6.13411 7.11314 6.27454 6.77406 6.5245 6.52403Z" stroke="#E0E0E0"/>
<path d="M23.5908 6.52377C23.8307 6.28464 24.1527 6.14581 24.4913 6.13547C24.8299 6.12513 25.1597 6.24406 25.4138 6.4681C25.6679 6.69215 25.8272 7.00451 25.8593 7.34174C25.8914 7.67897 25.794 8.01578 25.5868 8.28377L25.4761 8.40911L24.5428 9.34244C24.3028 9.58157 23.9809 9.7204 23.6423 9.73074C23.3037 9.74108 22.9738 9.62215 22.7197 9.39811C22.4656 9.17406 22.3064 8.8617 22.2742 8.52447C22.2421 8.18724 22.3396 7.85043 22.5468 7.58244L22.6574 7.45711L23.5908 6.52377Z" stroke="#E0E0E0"/>
<path d="M18.6667 24.0001C19.0203 24.0001 19.3594 24.1406 19.6095 24.3906C19.8595 24.6407 20 24.9798 20 25.3334C20 26.3943 19.5786 27.4117 18.8284 28.1618C18.0783 28.912 17.0609 29.3334 16 29.3334C14.9391 29.3334 13.9217 28.912 13.1716 28.1618C12.4214 27.4117 12 26.3943 12 25.3334C12 25.0068 12.1199 24.6916 12.337 24.4476C12.554 24.2035 12.853 24.0476 13.1773 24.0094L13.3333 24.0001H18.6667Z" stroke="#E0E0E0"/>
<path d="M16 8.00008C17.6791 8.00008 19.3156 8.52838 20.6777 9.51014C22.0398 10.4919 23.0585 11.8774 23.5895 13.4703C24.1204 15.0632 24.1368 16.7827 23.6361 18.3854C23.1355 19.9881 22.1432 21.3926 20.8 22.4001C20.6162 22.5381 20.3999 22.6263 20.172 22.6561L20 22.6667H12C11.7115 22.6667 11.4308 22.5732 11.2 22.4001C9.85675 21.3926 8.86453 19.9881 8.36389 18.3854C7.86325 16.7827 7.87957 15.0632 8.41053 13.4703C8.9415 11.8774 9.96019 10.4919 11.3223 9.51014C12.6844 8.52838 14.3209 8.00008 16 8.00008Z" stroke="#E0E0E0"/>
</svg>
