<svg width="24" height="24" viewBox="0 0 24 24" fill="none" xmlns="http://www.w3.org/2000/svg">
<g clip-path="url(#clip0_2905_38903)">
<g filter="url(#filter0_d_2905_38903)">
<path d="M8.56014 3.68994C7.46822 4.14193 6.47601 4.80454 5.64014 5.63994M3.69 8.56006C3.23656 9.65036 3.0021 10.8192 3 12.0001M3.68994 15.4399C4.14193 16.5319 4.80454 17.5241 5.63994 18.3599M8.56006 20.3101C9.65036 20.7635 10.8192 20.998 12.0001 21.0001M15.4399 20.3099C16.5319 19.8579 17.5241 19.1953 18.3599 18.3599M20.3101 15.44C20.7635 14.3497 20.998 13.1808 21.0001 12M20.3099 8.56014C19.8579 7.46822 19.1953 6.47601 18.3599 5.64014M15.44 3.69C14.3497 3.23656 13.1808 3.0021 12 3" stroke="white" stroke-width="2" stroke-linecap="round" stroke-linejoin="round" shape-rendering="crispEdges"/>
</g>
</g>
<defs>
<filter id="filter0_d_2905_38903" x="-18" y="-14" width="60" height="60" filterUnits="userSpaceOnUse" color-interpolation-filters="sRGB">
<feFlood flood-opacity="0" result="BackgroundImageFix"/>
<feColorMatrix in="SourceAlpha" type="matrix" values="0 0 0 0 0 0 0 0 0 0 0 0 0 0 0 0 0 0 127 0" result="hardAlpha"/>
<feOffset dy="4"/>
<feGaussianBlur stdDeviation="10"/>
<feComposite in2="hardAlpha" operator="out"/>
<feColorMatrix type="matrix" values="0 0 0 0 0 0 0 0 0 0 0 0 0 0 0 0 0 0 0.08 0"/>
<feBlend mode="normal" in2="BackgroundImageFix" result="effect1_dropShadow_2905_38903"/>
<feBlend mode="normal" in="SourceGraphic" in2="effect1_dropShadow_2905_38903" result="shape"/>
</filter>
<clipPath id="clip0_2905_38903">
<rect width="24" height="24" fill="white"/>
</clipPath>
</defs>
</svg>
