<svg width="48" height="48" viewBox="0 0 48 48" fill="none" xmlns="http://www.w3.org/2000/svg">
<path d="M12 8.00008V40.0001C11.9999 40.3559 12.0947 40.7054 12.2748 41.0123C12.4548 41.3193 12.7134 41.5727 13.024 41.7464C13.3347 41.92 13.686 42.0076 14.0418 42.0002C14.3976 41.9928 14.7449 41.8905 15.048 41.7041L41.048 25.7041C41.3392 25.5251 41.5797 25.2746 41.7465 24.9763C41.9133 24.6779 42.0009 24.3419 42.0009 24.0001C42.0009 23.6583 41.9133 23.3222 41.7465 23.0239C41.5797 22.7256 41.3392 22.475 41.048 22.2961L15.048 6.29608C14.7449 6.1096 14.3976 6.00738 14.0418 5.99995C13.686 5.99252 13.3347 6.08015 13.024 6.2538C12.7134 6.42745 12.4548 6.68083 12.2748 6.9878C12.0947 7.29477 11.9999 7.64422 12 8.00008Z" fill="white"/>
</svg>
