<svg width="19" height="19" viewBox="0 0 19 19" fill="none" xmlns="http://www.w3.org/2000/svg">
<path d="M7.12342 16.2173C5.7346 15.7259 4.53225 14.8161 3.68188 13.6131C2.83151 12.4102 2.37493 10.9732 2.375 9.5C2.375 8.56433 2.55929 7.63783 2.91736 6.77338C3.27542 5.90894 3.80025 5.12348 4.46186 4.46186C5.12348 3.80025 5.90894 3.27542 6.77338 2.91736C7.63783 2.55929 8.56433 2.375 9.5 2.375C10.4357 2.375 11.3622 2.55929 12.2266 2.91736C13.0911 3.27542 13.8765 3.80025 14.5381 4.46186C15.1998 5.12348 15.7246 5.90894 16.0826 6.77338C16.4407 7.63783 16.625 8.56433 16.625 9.5M9.5 5.54167V9.5M9.5 11.875H11.0833C11.2933 11.875 11.4947 11.9584 11.6431 12.1069C11.7916 12.2553 11.875 12.4567 11.875 12.6667V13.4583C11.875 13.6683 11.7916 13.8697 11.6431 14.0181C11.4947 14.1666 11.2933 14.25 11.0833 14.25H10.2917C10.0817 14.25 9.88034 14.3334 9.73187 14.4819C9.58341 14.6303 9.5 14.8317 9.5 15.0417V15.8333C9.5 16.0433 9.58341 16.2447 9.73187 16.3931C9.88034 16.5416 10.0817 16.625 10.2917 16.625H11.875M14.25 11.875V13.4583C14.25 13.6683 14.3334 13.8697 14.4819 14.0181C14.6303 14.1666 14.8317 14.25 15.0417 14.25H15.8333M16.625 11.875V16.625" stroke="#111111" stroke-width="1.5" stroke-linecap="round" stroke-linejoin="round"/>
</svg>
