<svg width="48" height="48" viewBox="0 0 48 48" fill="none" xmlns="http://www.w3.org/2000/svg">
<path d="M18 8H14C12.9391 8 11.9217 8.42143 11.1716 9.17157C10.4214 9.92172 10 10.9391 10 12V36C10 37.0609 10.4214 38.0783 11.1716 38.8284C11.9217 39.5786 12.9391 40 14 40H18C19.0609 40 20.0783 39.5786 20.8284 38.8284C21.5786 38.0783 22 37.0609 22 36V12C22 10.9391 21.5786 9.92172 20.8284 9.17157C20.0783 8.42143 19.0609 8 18 8Z" fill="white"/>
<path d="M34 8H30C28.9391 8 27.9217 8.42143 27.1716 9.17157C26.4214 9.92172 26 10.9391 26 12V36C26 37.0609 26.4214 38.0783 27.1716 38.8284C27.9217 39.5786 28.9391 40 30 40H34C35.0609 40 36.0783 39.5786 36.8284 38.8284C37.5786 38.0783 38 37.0609 38 36V12C38 10.9391 37.5786 9.92172 36.8284 9.17157C36.0783 8.42143 35.0609 8 34 8Z" fill="white"/>
<path d="M18 8H14C12.9391 8 11.9217 8.42143 11.1716 9.17157C10.4214 9.92172 10 10.9391 10 12V36C10 37.0609 10.4214 38.0783 11.1716 38.8284C11.9217 39.5786 12.9391 40 14 40H18C19.0609 40 20.0783 39.5786 20.8284 38.8284C21.5786 38.0783 22 37.0609 22 36V12C22 10.9391 21.5786 9.92172 20.8284 9.17157C20.0783 8.42143 19.0609 8 18 8Z" stroke="white"/>
<path d="M34 8H30C28.9391 8 27.9217 8.42143 27.1716 9.17157C26.4214 9.92172 26 10.9391 26 12V36C26 37.0609 26.4214 38.0783 27.1716 38.8284C27.9217 39.5786 28.9391 40 30 40H34C35.0609 40 36.0783 39.5786 36.8284 38.8284C37.5786 38.0783 38 37.0609 38 36V12C38 10.9391 37.5786 9.92172 36.8284 9.17157C36.0783 8.42143 35.0609 8 34 8Z" stroke="white"/>
</svg>
